<?xml version="1.0" standalone="no"?>
<!DOCTYPE svg PUBLIC "-//W3C//DTD SVG 20010904//EN"
 "http://www.w3.org/TR/2001/REC-SVG-20010904/DTD/svg10.dtd">
<svg version="1.0" xmlns="http://www.w3.org/2000/svg"
 width="794.000000pt" height="743.000000pt" viewBox="0 0 794.000000 743.000000"
 preserveAspectRatio="xMidYMid meet">

<g transform="translate(0.000000,743.000000) scale(0.100000,-0.100000)"
fill="#000000" stroke="none">
<path d="M3570 7359 c-582 -56 -1104 -307 -1515 -730 -459 -473 -697 -1090
-671 -1739 14 -363 95 -677 255 -995 200 -396 476 -703 833 -928 50 -31 95
-57 100 -57 12 0 10 168 -3 215 -8 29 -40 69 -129 160 -121 125 -150 168 -171
248 -9 39 -8 56 11 119 32 108 27 127 -43 164 -32 17 -81 53 -110 80 -76 73
-134 116 -205 154 -79 42 -112 81 -152 183 -71 180 -98 355 -81 520 20 184 64
307 167 465 58 89 224 266 231 245 2 -6 -12 -43 -31 -82 -20 -39 -48 -105 -62
-147 -23 -69 -25 -92 -25 -221 0 -79 3 -156 7 -171 10 -49 27 -83 37 -79 6 2
43 49 82 105 85 122 118 158 167 183 58 30 74 25 97 -26 14 -32 27 -46 47 -51
39 -10 54 3 102 93 46 85 68 103 127 103 44 0 70 -28 85 -92 7 -27 23 -62 37
-79 14 -16 23 -35 20 -43 -3 -7 -38 -24 -78 -36 -107 -32 -179 -60 -179 -70 0
-4 24 -11 53 -14 29 -4 58 -10 65 -15 25 -15 -28 -58 -100 -81 -121 -39 -184
-94 -235 -208 -15 -31 -37 -70 -50 -85 -19 -24 -23 -40 -23 -94 l0 -66 -40 63
-41 62 -67 -4 c-81 -5 -135 -29 -162 -73 -39 -63 -18 -179 36 -204 36 -16 50
-14 99 14 27 16 46 22 50 16 3 -6 1 -36 -4 -67 -12 -62 -6 -78 32 -88 15 -3
27 -20 39 -54 25 -69 58 -102 104 -102 27 0 41 6 56 25 16 21 28 25 73 25 95
0 151 -18 238 -77 45 -30 108 -68 140 -84 61 -31 91 -68 101 -124 8 -42 40
-70 96 -85 60 -16 110 -42 139 -74 l24 -26 -95 0 c-99 0 -238 20 -308 44 -35
12 -39 12 -29 0 19 -24 132 -73 205 -90 83 -19 262 -22 354 -5 339 61 892 314
1156 528 65 52 87 44 156 -55 l30 -44 -38 -40 c-115 -119 -336 -282 -498 -367
-84 -44 -106 -50 -86 -26 17 21 7 101 -16 126 -23 26 -47 22 -156 -26 -172
-76 -395 -139 -583 -164 -104 -15 -118 -28 -144 -140 -21 -90 -50 -131 -92
-131 -40 0 -76 -28 -83 -63 -4 -19 -26 -65 -51 -103 -25 -38 -45 -74 -45 -80
0 -25 244 -115 442 -164 338 -83 724 -86 1073 -9 707 157 1330 646 1645 1294
328 675 330 1443 4 2105 -371 756 -1100 1256 -1953 1340 -118 11 -336 11 -461
-1z m235 -356 c-137 -33 -369 -125 -489 -195 -291 -167 -568 -479 -742 -833
-68 -139 -89 -194 -134 -346 -20 -70 -40 -113 -71 -156 -40 -55 -115 -143
-122 -143 -1 0 1 49 5 110 20 320 125 620 312 895 74 108 262 305 369 386 195
147 424 243 665 278 60 9 241 12 207 4z m895 -232 c113 -59 260 -190 330 -291
103 -152 144 -280 144 -455 1 -140 -19 -218 -81 -325 -54 -93 -191 -227 -279
-273 -241 -125 -530 -74 -783 137 l-43 36 58 -7 c33 -5 122 -8 199 -8 120 0
150 4 214 25 151 49 285 164 355 304 50 99 66 172 66 297 0 212 -70 381 -224
544 -31 33 -56 61 -56 62 0 3 49 -19 100 -46z m-416 -249 c31 -59 110 -111
173 -113 23 -1 19 -3 -17 -13 -56 -16 -100 -38 -122 -63 -23 -25 -57 -103 -59
-133 -1 -19 -3 -16 -10 13 -23 99 -76 155 -169 180 -48 13 -51 15 -22 16 88 3
189 104 193 195 1 12 5 4 10 -17 5 -21 15 -50 23 -65z m-688 -681 c159 -33
369 -112 438 -166 32 -24 16 -24 -69 1 -84 25 -287 68 -369 78 l-49 6 75 -49
c70 -46 213 -169 205 -178 -2 -2 -40 17 -83 41 -323 181 -702 224 -1061 120
-47 -14 -87 -23 -89 -21 -7 6 106 69 175 97 85 35 250 77 351 89 118 15 360 6
476 -18z m-563 -261 c53 -16 105 -64 113 -106 10 -52 -1 -78 -61 -142 -30 -33
-62 -76 -70 -96 -20 -48 -61 -50 -98 -6 -25 29 -33 69 -36 170 -1 66 -18 89
-77 106 -71 20 -72 48 -4 79 39 17 166 15 233 -5z m-309 -171 c42 -50 55 -94
32 -117 -17 -17 -33 -12 -95 33 -43 32 -63 26 -117 -31 -41 -44 -70 -54 -92
-32 -20 20 -14 36 30 84 52 56 132 104 175 104 25 0 39 -9 67 -41z m1293 -51
c226 -92 592 -386 720 -578 108 -162 173 -331 180 -470 2 -47 0 -91 -5 -98
-11 -17 -151 41 -222 92 -27 19 -52 32 -54 27 -17 -26 100 -187 158 -218 19
-10 18 -12 -8 -57 -30 -51 -123 -166 -134 -166 -16 0 -93 131 -142 240 -29 63
-61 130 -72 148 -19 31 -50 42 -63 22 -3 -5 21 -69 54 -142 l60 -133 -22 -17
c-43 -34 -223 -118 -287 -135 -84 -22 -226 -22 -310 0 -36 10 -97 33 -137 52
-123 60 -343 236 -343 274 1 25 37 100 69 140 17 21 40 57 53 81 27 52 70 76
203 114 96 28 164 33 183 14 7 -7 12 -27 12 -44 0 -29 7 -36 58 -67 76 -46 96
-51 117 -31 15 15 24 16 100 4 46 -7 100 -10 122 -7 49 8 85 48 81 90 -4 39
-28 52 -121 65 -100 15 -138 61 -82 98 21 13 46 16 141 13 145 -5 153 1 108
87 -29 56 -63 89 -70 69 -16 -40 -22 -41 -74 -12 -31 17 -58 26 -69 22 -11 -3
-39 -43 -66 -96 l-47 -90 -51 49 c-61 57 -135 108 -144 98 -4 -3 11 -25 33
-49 38 -39 92 -106 108 -134 4 -8 1 -13 -9 -13 -9 0 -52 34 -95 75 -61 58 -85
75 -108 75 -38 0 -93 -38 -111 -75 -31 -67 -89 -105 -163 -105 -35 0 -68 32
-68 65 0 21 -8 27 -67 45 -96 30 -240 37 -335 16 -81 -18 -209 -75 -245 -108
-13 -12 -23 -17 -23 -11 0 20 83 84 145 114 33 16 89 36 125 45 88 22 248 15
347 -16 l71 -23 28 22 c32 25 56 27 90 5 13 -9 27 -14 31 -11 9 9 -16 63 -38
83 -25 23 -24 39 5 52 13 5 54 44 91 85 61 67 73 76 114 82 70 11 121 35 132
62 19 49 -17 119 -75 147 -48 23 -60 21 -42 -6 33 -47 11 -108 -40 -108 -87 0
-115 198 -36 261 24 18 36 21 102 17 49 -3 97 -14 137 -30z m717 -254 c114
-87 247 -303 316 -514 89 -269 112 -565 65 -830 -35 -193 -125 -420 -233 -585
-26 -38 -88 -112 -139 -164 -94 -95 -135 -118 -71 -39 68 83 161 234 223 363
113 233 153 394 162 640 8 249 -29 447 -133 713 -75 191 -141 308 -246 440
-20 24 9 12 56 -24z m-1125 -15 c58 -80 66 -147 18 -163 -40 -14 -54 6 -66 96
-16 116 -2 136 48 67z m-111 -71 c16 -16 15 -45 0 -50 -24 -9 -38 4 -38 33 0
30 17 38 38 17z m-663 -173 c0 -26 -3 -30 -29 -30 -36 0 -56 26 -36 50 8 9 24
15 39 13 22 -2 26 -8 26 -33z m180 -530 c95 -24 252 -107 344 -182 198 -161
261 -206 346 -248 127 -62 197 -79 337 -79 138 -1 139 1 -32 -89 l-109 -58
-26 50 c-35 69 -32 69 -256 45 -76 -8 -118 7 -171 64 -40 43 -58 77 -85 167
-18 61 -233 200 -377 244 -157 48 -365 49 -504 2 -31 -11 -58 -18 -60 -16 -2
2 23 19 55 38 112 65 216 88 373 82 58 -2 132 -11 165 -20z m-722 -149 c37
-13 89 -38 115 -54 26 -16 58 -33 71 -37 l25 -8 -29 -14 c-39 -21 -76 -13
-199 45 -84 40 -106 55 -106 71 0 28 36 27 123 -3z m2427 -347 c0 -30 -72
-141 -139 -213 -86 -94 -116 -151 -131 -256 -16 -102 -37 -146 -99 -205 -29
-27 -71 -80 -92 -118 -67 -113 -169 -197 -238 -197 -63 0 -63 0 -66 192 -1 96
-5 180 -9 186 -5 8 -22 5 -59 -10 -123 -49 -301 -85 -494 -101 -75 -6 -66 7
15 21 100 17 302 77 432 128 294 117 572 298 780 508 70 71 100 91 100 65z
m-90 -541 c0 -39 -37 -122 -81 -183 -30 -41 -109 -105 -109 -88 0 17 38 141
51 164 15 29 119 139 131 139 4 0 8 -15 8 -32z"/>
<path d="M345 2128 c-61 -28 -150 -68 -200 -88 -60 -24 -91 -42 -93 -54 -7
-33 12 -37 82 -21 83 19 103 14 111 -28 3 -18 5 -185 3 -372 -3 -308 -5 -343
-21 -366 -21 -31 -52 -45 -119 -55 -43 -6 -48 -9 -48 -33 l0 -26 282 3 c156 1
289 2 296 2 9 0 12 10 10 27 -3 24 -9 29 -45 35 -23 4 -56 14 -73 23 -59 31
-60 39 -60 532 0 246 -4 453 -8 460 -6 9 -38 -2 -117 -39z"/>
<path d="M5822 2143 c-68 -192 -319 -868 -334 -900 -22 -46 -79 -103 -104
-103 -11 0 -14 -8 -12 -25 l3 -26 165 -2 165 -1 3 27 c3 21 -1 27 -15 27 -10
0 -33 9 -50 20 -28 17 -33 25 -33 59 0 21 15 81 34 132 l34 94 179 3 180 2 31
-92 c48 -140 41 -190 -29 -213 -25 -9 -34 -18 -34 -34 l0 -23 230 -1 230 -1 0
24 c0 17 -8 26 -30 33 -69 22 -58 -2 -304 652 l-139 370 -80 3 c-79 3 -80 3
-90 -25z m107 -389 c39 -111 71 -204 71 -208 0 -3 -65 -6 -145 -6 -80 0 -145
1 -145 3 0 3 127 383 135 406 3 8 7 12 9 10 2 -2 35 -95 75 -205z"/>
<path d="M1164 2151 c-2 -2 -4 -14 -4 -27 0 -18 7 -23 41 -29 22 -4 52 -17 67
-30 l27 -23 5 -359 c5 -350 6 -359 29 -410 46 -103 152 -172 304 -200 249 -45
465 50 524 232 13 41 17 111 20 395 5 387 5 385 73 396 33 5 40 11 40 29 0 19
-7 23 -46 29 -26 3 -102 6 -170 6 l-124 0 0 -28 c0 -24 5 -30 37 -38 21 -5 45
-21 57 -37 20 -28 21 -39 21 -350 0 -367 -3 -386 -77 -452 -60 -55 -100 -69
-198 -69 -71 -1 -94 4 -141 26 -59 27 -98 69 -118 127 -7 23 -11 144 -11 366
0 321 1 333 21 359 13 17 34 28 60 32 33 6 39 10 39 30 0 13 -6 25 -12 26 -28
4 -460 3 -464 -1z"/>
<path d="M2407 2153 c-18 -18 -5 -42 26 -48 48 -10 77 -32 93 -72 13 -31 13
-67 -6 -326 -25 -358 -38 -481 -53 -514 -12 -27 -54 -53 -87 -53 -15 0 -20 -6
-20 -25 l0 -25 160 -2 c88 -1 168 -2 178 -2 11 -1 18 8 20 27 3 24 0 27 -26
27 -16 0 -41 9 -55 20 -48 38 -50 66 -33 368 9 152 19 302 22 331 l6 55 73
-170 c40 -93 120 -279 178 -414 149 -345 117 -361 336 170 103 250 177 416
181 408 12 -21 53 -652 46 -691 -8 -41 -22 -54 -73 -72 -29 -10 -38 -19 -38
-35 l0 -22 223 0 c123 0 225 2 228 5 10 10 -7 47 -22 47 -25 0 -73 29 -84 50
-6 11 -24 200 -40 421 -26 348 -28 404 -16 433 13 31 43 50 91 58 14 2 20 11
20 28 0 24 -3 25 -75 28 -41 2 -121 1 -177 -3 l-102 -7 -20 -67 c-20 -65 -237
-605 -264 -657 -13 -25 -14 -24 -49 58 -153 358 -283 655 -291 666 -7 9 -55
12 -177 12 -91 0 -170 -3 -173 -7z"/>
<path d="M3904 2151 c-2 -2 -4 -14 -4 -26 0 -19 7 -23 42 -28 54 -7 84 -41 93
-101 8 -48 -29 -619 -46 -729 -13 -78 -29 -103 -84 -121 -27 -10 -41 -21 -43
-35 -4 -25 -19 -23 193 -24 l160 0 3 25 c3 22 -2 26 -31 32 -41 8 -75 41 -83
84 -7 32 12 506 25 615 l6 58 64 -148 c36 -81 115 -265 177 -408 108 -250 113
-260 141 -263 l30 -3 174 415 c146 350 175 411 181 388 8 -30 48 -541 48 -615
0 -78 -39 -127 -100 -127 -15 0 -20 -7 -20 -27 l0 -28 225 0 c209 0 226 1 231
18 7 23 1 30 -44 42 -67 19 -71 36 -98 398 -13 177 -23 362 -24 410 0 85 1 90
29 118 19 19 40 29 59 29 22 0 31 6 36 22 3 13 2 26 -3 31 -4 4 -84 4 -178 1
l-172 -7 -30 -86 c-35 -100 -258 -643 -269 -653 -4 -3 -76 154 -161 350 -85
196 -160 367 -167 379 -13 21 -18 22 -185 20 -94 -1 -173 -4 -175 -6z"/>
<path d="M6540 2129 c0 -23 5 -29 20 -29 37 0 77 -28 89 -61 7 -21 11 -162 11
-419 0 -257 -4 -398 -11 -419 -11 -33 -52 -61 -88 -61 -24 0 -34 -14 -27 -38
5 -16 26 -17 238 -16 l233 0 3 27 c3 22 -1 27 -20 27 -41 0 -86 36 -97 77 -6
21 -11 113 -11 206 l0 167 240 0 240 0 0 -185 c0 -143 -3 -192 -15 -214 -13
-27 -46 -46 -90 -53 -13 -2 -20 -11 -20 -27 l0 -24 235 1 235 1 3 25 c3 21 -1
26 -18 26 -29 0 -77 26 -90 49 -6 13 -10 169 -10 434 0 404 1 415 21 441 13
17 34 28 60 32 34 6 39 10 39 34 l0 27 -237 -1 -238 -1 0 -25 c0 -19 7 -26 30
-30 46 -10 75 -29 85 -56 6 -14 10 -99 10 -190 l0 -164 -237 2 -238 3 0 173 0
174 33 29 c20 18 43 29 62 29 26 0 30 4 30 28 l0 27 -235 1 -235 1 0 -28z"/>
<path d="M818 1623 l-157 -4 -6 -53 c-4 -30 -4 -59 0 -66 4 -7 70 -10 207 -10
l200 2 20 44 c10 25 18 55 16 67 -3 25 -6 25 -280 20z"/>
<path d="M390 520 l0 -190 30 0 30 0 0 93 c0 106 11 127 68 127 48 0 62 -29
62 -132 l0 -88 30 0 30 0 0 90 c0 92 -13 144 -43 168 -22 19 -92 17 -122 -2
l-25 -16 0 70 0 70 -30 0 -30 0 0 -190z"/>
<path d="M2960 520 l0 -190 30 0 c29 0 30 2 30 43 0 30 6 49 18 60 18 16 21
14 62 -43 38 -53 47 -60 78 -60 l34 0 -32 43 c-18 23 -44 59 -58 80 l-25 38
53 55 54 54 -35 0 c-31 0 -44 -9 -93 -60 -32 -33 -58 -60 -59 -60 -1 0 -1 52
1 115 l3 115 -30 0 -31 0 0 -190z"/>
<path d="M3620 520 l0 -190 25 0 c25 0 25 1 25 80 0 108 16 140 70 140 52 0
60 -17 60 -129 l0 -91 30 0 30 0 0 100 c0 121 -13 154 -66 169 -39 11 -76 2
-106 -26 -17 -15 -18 -12 -18 60 0 75 -1 77 -25 77 l-25 0 0 -190z"/>
<path d="M6400 520 l0 -190 25 0 25 0 0 190 0 190 -25 0 -25 0 0 -190z"/>
<path d="M40 665 c0 -24 3 -25 60 -25 l60 0 0 -155 0 -155 30 0 30 0 0 155 0
155 60 0 c57 0 60 1 60 25 l0 25 -150 0 -150 0 0 -25z"/>
<path d="M1790 635 c0 -24 -5 -35 -15 -35 -9 0 -15 -9 -15 -25 0 -16 6 -25 15
-25 12 0 15 -16 15 -88 0 -113 11 -132 81 -132 46 0 49 1 49 26 0 21 -4 25
-19 21 -40 -10 -51 9 -51 93 l0 80 34 0 c28 0 34 4 38 25 5 23 2 25 -33 25
-38 0 -39 1 -39 35 0 32 -2 35 -30 35 -28 0 -30 -3 -30 -35z"/>
<path d="M3420 635 c0 -24 -5 -35 -15 -35 -9 0 -15 -9 -15 -25 0 -16 6 -25 15
-25 12 0 15 -16 15 -88 0 -113 12 -132 79 -132 44 0 49 2 54 26 4 22 2 25 -16
20 -11 -3 -29 -1 -39 5 -15 8 -18 22 -18 89 l0 80 33 0 c40 0 46 5 40 31 -4
14 -14 19 -39 19 -32 0 -34 2 -34 35 0 32 -2 35 -30 35 -28 0 -30 -3 -30 -35z"/>
<path d="M4240 635 c0 -24 -5 -35 -15 -35 -9 0 -15 -9 -15 -25 0 -17 5 -25 18
-25 15 0 17 -9 14 -67 -7 -124 16 -159 99 -151 27 2 35 8 37 27 3 20 0 23 -19
18 -47 -12 -59 7 -59 93 l0 80 40 0 c36 0 40 3 40 25 0 23 -4 25 -40 25 -39 0
-40 1 -40 35 0 32 -2 35 -30 35 -28 0 -30 -3 -30 -35z"/>
<path d="M1561 599 c-18 -4 -47 -21 -64 -37 -41 -42 -50 -124 -18 -175 41 -66
144 -84 206 -35 24 19 25 22 11 37 -15 14 -19 14 -45 -2 -16 -9 -40 -17 -54
-17 -31 0 -77 36 -77 61 0 17 8 19 100 19 100 0 100 0 100 25 0 81 -77 142
-159 124z m73 -60 c14 -11 26 -29 26 -40 0 -17 -8 -19 -69 -19 -39 0 -73 5
-76 10 -9 14 49 70 73 70 11 0 31 -9 46 -21z"/>
<path d="M5562 599 c-96 -20 -133 -149 -66 -229 47 -56 152 -62 198 -12 14 17
15 21 2 31 -12 10 -21 9 -46 -4 -41 -21 -93 -13 -115 18 -30 43 -22 47 85 47
l100 0 0 30 c0 34 -20 79 -44 99 -23 19 -76 28 -114 20z m63 -45 c14 -6 45
-53 45 -69 0 -3 -34 -5 -75 -5 -84 0 -95 11 -50 55 24 25 49 31 80 19z"/>
<path d="M5900 598 c-14 -5 -33 -19 -42 -31 l-18 -22 0 28 c0 23 -4 27 -30 27
l-30 0 0 -135 0 -135 29 0 29 0 3 84 c4 93 19 120 70 131 22 5 29 12 29 30 0
30 -9 35 -40 23z"/>
<path d="M6916 599 c-106 -30 -130 -177 -40 -248 51 -40 138 -36 178 8 14 16
15 20 2 30 -11 10 -21 9 -45 -3 -43 -23 -78 -20 -106 9 -47 47 -36 55 75 55
l100 0 0 26 c0 83 -84 147 -164 123z m81 -61 c13 -12 23 -30 23 -40 0 -16 -9
-18 -70 -18 -62 0 -70 2 -70 19 0 24 45 61 73 61 11 0 31 -10 44 -22z"/>
<path d="M746 579 c-97 -76 -60 -232 59 -255 40 -7 96 9 119 35 14 16 15 20 2
30 -11 10 -21 9 -45 -3 -43 -23 -78 -20 -106 9 -47 47 -36 55 75 55 l100 0 0
30 c0 40 -22 83 -54 104 -37 24 -117 21 -150 -5z m115 -32 c21 -16 40 -53 32
-61 -3 -3 -37 -6 -75 -6 -60 0 -68 2 -68 19 0 24 45 61 74 61 11 0 28 -6 37
-13z"/>
<path d="M1160 465 l0 -135 30 0 30 0 0 94 c0 107 10 126 64 126 52 0 61 -20
61 -126 l0 -94 28 0 27 0 0 110 c0 104 -1 112 -25 135 -29 30 -97 34 -133 9
-20 -14 -22 -14 -22 0 0 11 -10 16 -30 16 l-30 0 0 -135z"/>
<path d="M1970 591 c0 -5 20 -64 44 -132 39 -111 46 -124 69 -127 23 -3 27 3
58 95 l32 98 32 -95 c28 -84 34 -95 57 -98 17 -2 28 3 32 15 12 31 86 245 86
249 0 2 -13 4 -28 4 -28 0 -30 -4 -58 -97 l-30 -98 -33 98 c-31 93 -34 98 -59
95 -23 -3 -29 -13 -57 -97 l-31 -95 -29 97 c-28 92 -31 97 -57 97 -15 0 -28
-4 -28 -9z"/>
<path d="M2456 570 c-84 -74 -66 -194 36 -234 97 -40 198 26 198 129 0 81 -58
135 -147 135 -44 0 -58 -5 -87 -30z m150 -42 c65 -60 8 -172 -77 -153 -59 13
-89 92 -53 143 32 46 88 50 130 10z"/>
<path d="M2750 465 l0 -135 29 0 29 0 3 84 c4 93 19 120 70 131 22 5 29 12 29
31 0 34 -43 33 -75 -2 l-25 -27 0 27 c0 22 -4 26 -30 26 l-30 0 0 -135z"/>
<path d="M3962 589 c-15 -5 -22 -15 -20 -26 3 -15 13 -17 64 -15 63 4 94 -11
94 -44 0 -12 -10 -13 -48 -8 -99 13 -164 -48 -129 -121 24 -50 80 -65 136 -38
32 16 41 17 41 7 0 -9 11 -14 30 -14 l30 0 0 95 c0 107 -14 150 -56 165 -32
12 -111 12 -142 -1z m122 -135 c21 -8 20 -43 -1 -66 -19 -21 -82 -25 -101 -6
-43 43 34 98 102 72z"/>
<path d="M4585 465 l0 -135 28 0 27 0 0 88 c0 105 13 132 65 132 55 0 65 -18
65 -126 l0 -94 31 0 31 0 -4 109 c-3 100 -5 112 -27 135 -33 35 -103 37 -138
4 l-23 -21 0 21 c0 17 -6 22 -28 22 l-28 0 1 -135z"/>
<path d="M4949 585 c-80 -44 -89 -173 -16 -229 49 -37 98 -42 152 -16 48 23
53 31 31 49 -10 8 -20 8 -42 -4 -35 -18 -55 -19 -87 -4 -21 9 -47 46 -47 64 0
3 47 5 104 5 l103 0 -7 38 c-14 79 -50 112 -120 112 -25 -1 -57 -7 -71 -15z
m109 -42 c11 -10 23 -28 27 -40 6 -22 4 -23 -69 -23 -85 0 -96 11 -51 55 28
29 65 32 93 8z"/>
<path d="M5170 596 c0 -3 24 -62 54 -133 50 -119 56 -128 82 -131 28 -2 30 1
76 115 26 65 50 126 54 136 5 14 1 17 -22 17 -27 0 -31 -6 -63 -93 -40 -107
-46 -117 -56 -86 -4 13 -21 59 -37 102 -28 72 -32 77 -59 77 -16 0 -29 -2 -29
-4z"/>
<path d="M6155 575 c-50 -49 -24 -104 65 -133 39 -14 55 -24 55 -37 0 -34 -30
-41 -86 -21 -43 15 -53 15 -60 4 -14 -21 -11 -27 19 -41 91 -46 182 -13 182
67 0 28 -38 63 -79 72 -33 8 -71 32 -71 44 0 24 46 32 85 16 31 -13 40 -14 47
-4 21 34 -14 58 -88 58 -34 0 -51 -6 -69 -25z"/>
<path d="M6582 587 c-51 -29 -78 -99 -61 -161 23 -86 109 -125 193 -87 49 21
55 31 31 51 -11 9 -19 8 -37 -4 -42 -29 -107 -14 -127 31 -6 13 -11 26 -11 28
0 3 47 5 105 5 115 0 112 -2 95 62 -16 54 -61 88 -118 88 -26 -1 -57 -6 -70
-13z m113 -52 c45 -44 34 -55 -50 -55 -41 0 -75 2 -75 5 0 14 31 64 42 68 30
12 60 5 83 -18z"/>
<path d="M7140 420 l0 -180 30 0 30 0 0 67 0 66 23 -20 c33 -32 85 -38 126
-15 50 27 73 75 68 141 -3 47 -9 59 -40 88 -30 27 -45 33 -81 33 -29 0 -52 -7
-70 -21 l-26 -20 0 20 c0 17 -6 21 -30 21 l-30 0 0 -180z m191 111 c21 -21 29
-39 29 -64 0 -49 -8 -66 -41 -82 -39 -21 -53 -19 -88 11 -26 21 -31 33 -31 69
0 36 5 48 31 69 40 34 64 33 100 -3z"/>
<path d="M7495 575 c-29 -29 -33 -75 -7 -98 9 -8 43 -25 75 -37 59 -22 71 -42
38 -60 -27 -14 -47 -13 -88 7 -30 14 -36 14 -44 2 -5 -8 -9 -17 -9 -21 0 -15
66 -41 105 -42 108 -3 143 110 48 150 -98 41 -112 56 -70 75 18 8 32 7 62 -5
31 -13 40 -14 47 -4 21 34 -14 58 -88 58 -34 0 -51 -6 -69 -25z"/>
</g>
</svg>
